Patient4_TMGait_0pt6_01_right_36_EMG.mot
version=1
nRows=29
nColumns=33
inDegrees=no
endheader
time	1LAddLong	2LGlutMax	3LGlutMed	4LIliopsoas	5LSemiMemb	6LBicFemLong	7LRecFem	8LVastMed	9LVastLat	10LGasMed	11LTibAnt	12lTibPost	13LPeroneusLong	14LSol	15LExtDigLong	16LFlexDigLong	17RAddLong	18RGlutMax	19RGlutMed	20RIliopsoas	21RSemiMemb	22RBicFemLong	23RRecFem	24RVastMed	25RVastLat	26RGasMed	27RTibAnt	28RTibPost	29RPeroneusLong	30RSol	31RExtDigLong	32RFlexDigLong
43.23	0.00412	-0.10681	-0.10803	0.023193	-0.053864	0.33081	0.084534	0.010071	-0.026093	0.22064	0.005951	-0.000763	0.001221	-0.24872	-0.08606	-0.010223	-0.013428	-0.1471	0.05127	0.063324	-0.010986	0.056763	0.022125	-0.032959	-0.018768	0.005951	-0.046387	0.001678	-0.12116	-0.10407	-0.00412	-0.001984
43.231	0.002136	-0.11719	-0.22919	0.002289	0.12787	0.41641	0.093536	0.014648	-0.047302	0.5748	0.017853	0.005646	-0.75104	-0.30014	-0.0177	0.001373	-0.014648	-0.093689	0.020599	-0.007172	-0.000763	0.062561	-0.036469	-0.025482	-0.013275	0.010529	0.10696	0.002594	-0.4715	-0.11322	-0.003357	-0.003357
43.232	0.005493	-0.13351	-0.24933	-0.005798	0.11826	0.060272	0.084076	0.013428	-0.043793	0.26443	-0.016022	0.004883	-1.0805	-0.34622	0.10513	0.003967	-0.018616	-0.067444	0.001678	0.003815	-0.003052	0.046692	-0.046234	-0.072784	-0.018616	0.002747	0.14313	0.002594	-0.26794	-0.060272	-0.00473	0
43.233	-0.040436	-0.12054	-0.10666	0.006256	0.049438	-0.15732	0.092316	0.055847	-0.047302	-0.45624	-0.050049	0.007019	0.27786	-0.079651	0.029755	-0.002289	-0.014954	-0.046234	0.030975	-0.036316	-0.008392	0.04837	0.020752	-0.058289	-0.031433	0.001678	0.027161	-0.002441	0.16068	0.064392	0.00061	-0.004272
43.234	0.016327	-0.103	0.057678	0.003052	0.040588	-0.4538	0.093079	0.023651	-0.048523	-0.36484	-0.11307	0.000916	0.52567	0.18524	0.042419	0.002441	-0.017853	-0.06424	-0.050964	-0.043793	-0.014648	0.043335	-0.054932	-0.03418	-0.019989	-0.000305	0.016632	0.000916	-0.11368	-0.028076	-0.002289	0.000916
43.235	-0.024567	-0.092316	0.21011	-0.004578	-0.003052	-0.22583	0.074615	0.021362	-0.040436	-0.36041	-0.1709	-0.004425	0.032349	0.13184	0.085449	-0.010834	-0.00473	-0.089874	-0.06546	0.017395	-0.021362	0.05249	-0.089264	-0.053101	-0.019684	0.005798	0.082092	0.004425	-0.12589	-0.13702	0	0.005188
43.236	0.010223	-0.11093	0.071411	-0.00351	0.065613	-0.068512	0.037689	0.012054	-0.009613	-0.32898	-0.11505	0.007477	0.7637	0.13184	0.015564	-0.018768	-0.019684	-0.10468	-0.094604	0.023499	-0.013123	0.037537	-0.099792	-0.071869	-0.002289	-0.005035	0.028839	0.000305	0.22125	-0.13001	-0.001373	0.00473
43.237	-0.001526	-0.088654	0.13229	-0.018616	0.066681	-0.07843	-0.00412	0.014648	0.038452	-0.041809	0.092163	0.008087	0.024261	0.11688	-0.15762	-0.024261	-0.018005	-0.058289	-0.030975	0.000916	-0.010071	0.045776	0.034485	-0.088654	-0.012207	-0.005493	0.007782	0.009766	0.21545	-0.018005	-0.000916	0.002747
43.238	0.012207	-0.10529	0.008698	-0.010071	0.014038	-0.004425	-0.059662	0.009155	0.061951	-0.009003	0.28275	0.006866	-0.70938	0.30014	-0.040894	-0.021515	-0.019836	-0.069275	-0.042877	0.036316	0.000458	0.028381	0.069733	-0.074463	-0.009003	-0.001678	0.030365	0.000763	-0.031433	0.066681	0.000305	0.002899
43.239	0.018311	-0.11185	-0.023499	-0.004578	0.002441	0.054626	-0.070038	0.00412	0.13672	0.097046	0.32242	0.007935	-0.52734	0.37033	0.038452	-0.005035	-0.024872	-0.059357	-0.054932	0.018768	-0.009003	0.021515	-0.029602	-0.12817	0.005493	0.002899	-0.055237	-0.000305	0.084686	0.050049	-0.00061	0.00351
43.24	0.015106	-0.1297	-0.032959	0.031586	0.048523	0.081787	-0.047302	0.005493	0.13947	0.27206	0.1886	0.006866	-0.10529	0.15564	-0.10696	0.014496	-0.013123	-0.075073	-0.054779	0.044708	-0.014648	0.029144	0.005035	-0.12146	-0.012207	0.006409	-0.028534	0.002289	0.15778	-0.030212	-0.00351	-0.000916
43.241	0.002899	-0.13702	0.0354	0.008698	0.041809	-0.21286	0.037384	-0.005035	0.095673	0.26443	0.084534	0.009155	-0.011444	0.15732	0.041656	0.010223	-0.013428	-0.092468	0.002747	0.090332	-0.018921	0.037384	0.089722	-0.10727	-0.014648	0.010986	0.11704	0.001526	-0.063934	-0.052338	-0.001526	0.002594
43.242	0.010529	-0.084381	0.029449	-0.010223	0.009155	-0.23178	0.022736	0.000763	0.10849	-0.040894	-0.15595	0.006409	-0.002747	0.070953	0.17242	0.00412	0.024567	-0.062714	0.39078	0.086975	-0.021362	0.032043	0.083618	-0.11688	-0.003662	0.01236	0.063324	0.001526	-0.23911	-0.028229	0.000916	0.001678
43.243	0.007172	-0.13016	-0.052185	-0.018616	-0.009308	-0.096741	0.034637	0.006866	-0.018616	-0.09964	-0.2475	0.010529	-0.028534	-0.00473	0.20187	-0.004578	0.023193	-0.045776	0.48553	0.076294	-0.024719	0.041809	0.10956	-0.12421	0.002136	0.002747	0.084381	0.001221	-0.27771	-0.044098	-0.00412	-0.007477
43.244	0.011444	-0.099792	-0.048676	-0.021515	0.001221	-0.037384	0.050201	0.003662	-0.076294	-0.37384	-0.13534	0.008698	-0.05127	-0.063171	0.12985	0.003662	0.016937	-0.095367	0.24658	0.006714	-0.028381	0.014954	0.080414	-0.10941	-0.015717	-0.00061	0.19684	-0.000916	-0.1326	-0.042572	-0.001068	-0.005493
43.245	0.01709	-0.057526	-0.095215	-0.008698	0.089111	-0.062256	0.031891	0.000916	-0.033875	-0.4187	-0.037537	0.007172	-0.14816	-0.10132	-0.13763	-0.014038	0.001068	-0.090637	0.21866	-0.17288	-0.041199	0.028229	-0.027313	-0.11627	-0.012665	-0.018616	0.089874	0.002136	-0.097198	-0.026245	-0.001373	-0.007324
43.246	0.016022	-0.12039	-0.02655	-0.002747	0.07019	-0.034485	0.030975	0.004578	-0.029297	-0.37231	-0.007935	0.001678	0.27695	-0.1918	-0.31097	-0.002594	-0.012512	-0.035858	0.070953	-0.20264	-0.040131	0.019989	-0.088959	-0.078278	-0.023956	-0.012207	-0.036316	0.001221	0.05249	-0.025482	-0.001984	-0.010681
43.247	0.007935	-0.082245	0.15152	0.019989	0.03952	0.016022	0.062103	0.011139	-0.048676	-0.22827	0.022736	-0.001373	0.97458	-0.056	-0.19073	0.001678	-0.036621	-0.046692	-0.32837	-0.16235	-0.016785	0.021515	-0.10162	-0.112	-0.030975	-0.010223	-0.036163	0.002136	-0.084839	0.013733	-0.003052	-0.003662
43.248	-0.001984	-0.10849	0.25833	-0.000458	0.013123	0.094757	0.03952	0.00885	-0.047607	-0.057678	0.047913	0.00351	0.53863	0.016479	-0.06073	0.002136	-0.034943	-0.10681	-0.32425	-0.069275	0.00885	0.022125	-0.10773	-0.11047	-0.016479	-0.004883	0.001984	0.001984	-0.59311	-0.038605	-0.000458	-0.003815
43.249	-0.011902	-0.11505	0.17166	-0.003357	0.005188	0.14618	0.057678	0.005493	0.033112	-0.032349	0.028839	0.003204	-0.61584	0.040741	-0.032654	0.012817	0.00824	-0.10864	-0.16007	0.074463	0.005341	0.016022	-0.011292	-0.077667	-0.011292	0.001373	0.086823	0.00473	-0.28336	-0.090942	0.001526	-0.001831
43.25	-0.001526	-0.13657	0.024872	-0.009766	-0.05249	0.086975	0.063782	-0.003357	0.072784	-0.019379	0.001678	0.002899	-0.002441	-0.10269	-0.1471	0.000916	0.047302	-0.1181	-0.077209	0.23102	-0.044403	0.029602	-0.006409	-0.041656	0.008087	0.002899	0.26916	0	-0.035858	-0.11047	-0.003204	0.000763
43.251	-0.012665	-0.13901	-0.059509	0.00946	-0.11627	-0.082397	0.068054	0.001831	0.024109	-0.081482	-0.013428	0.001068	-0.34546	0.10101	0.005798	-0.004578	0.049133	-0.14725	-0.083313	0.29938	-0.058594	0.029755	-0.023193	-0.051575	-0.001068	0.007782	0.37659	0.000458	0.001526	-0.12466	-0.002136	-0.006561
43.252	0.013275	-0.12085	-0.087433	0.002441	-0.039978	-0.24277	0.054779	0.009308	0.009308	-0.037231	-0.041046	0.007324	-0.39291	0.09613	0.009308	0.002594	0.032196	-0.085602	-0.070038	0.14572	-0.019073	0.006561	0.029297	-0.027161	0.004578	-0.000916	0.41962	-0.000153	-0.047455	-0.13489	-0.001221	0
43.253	0.016937	-0.1384	-0.10757	0.021667	0.090637	-0.10437	0.000305	0.00885	0.068665	-0.043793	-0.046387	-0.005341	-0.31311	0.14542	0.028687	0.000763	-0.001831	-0.099792	-0.056915	0.022888	0.004425	-0.010529	0.034943	-0.015106	0.006409	-0.001831	0.21698	-0.000153	-0.055695	-0.1033	-0.007324	-0.00885
43.254	0.020294	-0.18448	-0.0177	0.009918	0.10971	0.023651	0.075531	0.001984	0.069427	-0.0737	-0.062256	-0.008545	-0.24277	0.17349	0.07843	0.005798	-0.015869	-0.033112	-0.082245	-0.051117	0.000458	-0.007172	0.18295	-0.018311	-0.005646	0	-0.079651	-0.002136	-0.006561	-0.056	-0.003052	-0.010834
43.255	0.016327	-0.17517	-0.019836	0.001678	0.078583	0.040131	0.15564	0.00061	0.035706	-0.026093	-0.052338	-0.010223	-0.37552	-0.019684	0.083771	0.007629	-0.056305	-0.11322	-0.14618	-0.068359	-0.068054	0.002594	0.12711	-0.04776	-0.002136	0.00824	-0.48492	-0.002747	-0.026703	-0.036163	-0.002441	-0.004425
43.256	0.018921	-0.16495	-0.045166	0.012817	0.091248	0.12558	0.16953	-0.001984	0.008392	0.010223	-0.023346	-0.009613	-0.44495	0.019836	0.057983	-0.007324	-0.076294	-0.072784	-0.13901	-0.055847	-0.085754	0.047913	0.10559	-0.055389	-0.004883	0.013885	-0.92697	0.001526	-0.003662	-0.035706	-0.004272	-0.002747
43.257	0.023041	-0.14374	-0.05127	-0.001678	0.074005	0.083618	0.11978	0.005798	0.012207	0.024261	-0.041962	-0.005646	0.02121	-0.1416	0.015106	0.002747	-0.07782	-0.098877	-0.041046	0.013428	-0.056152	0.04837	0.091705	-0.082397	0.015259	0.021362	-0.60364	0.000916	-0.003815	0.005188	-0.005798	0.003967
43.258	0.016022	-0.16892	-0.049744	0.005646	0.047913	0.098572	0.061035	0.003815	0.027924	0.13367	-0.028381	-0.008545	0.34439	-0.30594	0.030518	0.010376	-0.076447	-0.062408	-0.059204	-0.041656	-0.026245	0.039063	0.057068	-0.10376	0.024109	0.006104	-0.14587	-0.001526	0.023346	0.017395	-0.002441	0.007019
